<?xml version="1.0" standalone="no"?>
<!DOCTYPE svg PUBLIC "-//W3C//DTD SVG 20010904//EN"
 "http://www.w3.org/TR/2001/REC-SVG-20010904/DTD/svg10.dtd">
<svg version="1.0" xmlns="http://www.w3.org/2000/svg"
 width="606.000000pt" height="608.000000pt" viewBox="0 0 606.000000 608.000000"
 preserveAspectRatio="xMidYMid meet">

<g transform="translate(0.000000,608.000000) scale(0.100000,-0.100000)"
fill="#000000" stroke="none">
<path d="M2211 6070 l2216 -5 44 -38 c24 -21 125 -118 224 -215 99 -97 266
-260 370 -362 849 -826 939 -914 968 -939 l27 -24 0 796 0 797 -3032 -2 -3033
-3 2216 -5z"/>
<path d="M3184 3978 c-16 -12 -53 -43 -81 -69 -33 -30 -72 -54 -105 -64 -44
-14 -72 -36 -163 -125 -131 -127 -149 -140 -265 -190 -82 -35 -270 -136 -270
-145 0 -12 156 57 225 100 22 14 65 32 95 41 79 23 110 40 156 87 22 23 64 61
92 85 29 24 61 61 72 83 16 30 26 39 46 39 14 0 39 7 56 16 41 21 137 46 150
38 6 -4 8 -25 4 -55 -4 -29 -2 -50 4 -54 6 -4 32 0 58 9 72 23 112 29 112 17
0 -5 -29 -43 -65 -84 -36 -41 -65 -82 -65 -91 0 -9 16 -26 35 -38 34 -22 55
-65 55 -111 0 -37 19 -55 66 -62 39 -6 266 -59 342 -81 l24 -7 -17 34 c-10 19
-44 68 -76 110 -58 76 -109 162 -109 184 0 6 -16 27 -35 45 -27 27 -42 55 -62
120 -14 47 -30 91 -36 98 -18 22 -43 13 -60 -24 -25 -51 -46 -41 -90 44 -21
39 -44 72 -51 72 -7 0 -26 -10 -42 -22z"/>
<path d="M2781 3399 c-91 -8 -299 -41 -371 -58 -23 -6 34 -9 170 -10 304 -2
352 -12 588 -133 l154 -78 104 26 c57 15 104 30 104 34 0 10 -188 90 -330 141
-58 21 -100 38 -95 38 48 3 334 -63 479 -109 95 -30 102 -31 158 -20 32 7 61
16 63 20 6 10 -261 85 -395 110 -236 46 -421 57 -629 39z"/>
<path d="M1097 2724 c-4 -4 -7 -159 -7 -345 0 -324 1 -339 19 -349 23 -12 340
-14 359 -1 9 5 12 25 10 62 l-3 54 -127 3 -128 3 -2 287 -3 287 -55 3 c-31 2
-59 0 -63 -4z"/>
<path d="M1600 2375 l0 -355 238 2 237 3 0 60 0 60 -177 3 -178 2 0 80 0 79
158 3 157 3 3 63 3 62 -161 0 -160 0 0 80 0 80 168 2 167 3 3 63 3 62 -231 0
-230 0 0 -355z"/>
<path d="M2383 2712 c-159 -57 -249 -188 -241 -352 8 -173 125 -303 296 -330
99 -16 214 17 284 82 l28 26 0 135 c0 75 -3 142 -6 151 -5 13 -26 16 -131 16
l-124 0 3 -62 3 -63 63 -3 62 -3 0 -59 c0 -57 -1 -60 -32 -77 -22 -11 -56 -17
-99 -18 -56 0 -73 4 -115 30 -129 80 -147 253 -37 357 62 59 173 76 247 38
l38 -19 47 35 c25 20 46 41 46 47 0 7 -30 27 -67 46 -85 43 -184 52 -265 23z"/>
<path d="M3000 2725 c0 -3 -38 -159 -85 -346 -48 -188 -84 -343 -82 -345 4 -5
63 -8 98 -6 25 2 28 8 46 80 l19 77 71 3 71 3 19 -78 19 -78 62 -3 c71 -3 71
-3 47 88 -19 69 -19 67 6 73 18 5 20 12 17 59 -3 52 -4 53 -37 58 l-35 5 -51
205 -51 205 -67 3 c-37 2 -67 0 -67 -3z m86 -326 c21 -83 20 -89 -22 -89 -33
0 -36 2 -30 23 3 12 11 46 17 75 7 28 14 50 16 48 2 -2 11 -28 19 -57z"/>
<path d="M3342 2668 l3 -63 85 -3 85 -3 -3 -267 c-1 -147 0 -277 3 -289 5 -20
12 -23 49 -23 82 0 76 -22 76 296 l0 284 78 0 c42 0 83 4 90 9 9 5 12 25 10
62 l-3 54 -238 3 -238 2 3 -62z"/>
<path d="M3924 2716 c-3 -7 -4 -130 -2 -273 l3 -260 30 -49 c44 -71 115 -107
210 -107 59 0 80 4 123 28 29 16 63 45 79 68 l28 40 3 284 3 283 -61 0 -60 0
0 -250 c0 -204 -3 -256 -15 -280 -28 -53 -132 -65 -187 -21 -23 19 -23 21 -26
285 l-3 266 -60 0 c-42 0 -61 -4 -65 -14z"/>
<path d="M4659 2716 c-91 -32 -144 -108 -143 -203 2 -102 75 -173 196 -192
104 -17 111 -19 133 -34 27 -20 26 -81 -2 -109 -29 -28 -109 -36 -150 -15 -17
9 -36 30 -43 47 -12 29 -15 30 -73 30 l-60 0 6 -41 c7 -52 46 -110 92 -139 19
-12 63 -27 98 -32 112 -20 218 29 258 117 25 55 25 137 -2 184 -34 61 -123
110 -202 111 -49 0 -103 23 -117 50 -16 30 -3 78 26 96 32 22 115 22 147 1 14
-9 30 -32 37 -52 11 -35 12 -35 71 -35 58 0 59 0 59 28 0 41 -47 129 -84 156
-17 13 -46 28 -65 35 -45 15 -137 13 -182 -3z"/>
</g>
</svg>
